<?xml version="1.0" encoding="UTF-8"?>
<svg width="512" height="512" viewBox="0 0 24 24" fill="none" xmlns="http://www.w3.org/2000/svg">
    <path d="M12 2C6.48 2 2 6.48 2 12C2 17.52 6.48 22 12 22C17.52 22 22 17.52 22 12C22 6.48 17.52 2 12 2ZM12 20C7.59 20 4 16.41 4 12C4 7.59 7.59 4 12 4C16.41 4 20 7.59 20 12C20 16.41 16.41 20 12 20Z" fill="url(#paint0_linear)"/>
    <path d="M12 6C8.69 6 6 8.69 6 12C6 15.31 8.69 18 12 18C15.31 18 18 15.31 18 12C18 8.69 15.31 6 12 6Z" fill="url(#paint1_linear)"/>
    <defs>
        <linearGradient id="paint0_linear" x1="2" y1="2" x2="22" y2="22" gradientUnits="userSpaceOnUse">
        <stop stop-color="#3B82F6"/>
        <stop offset="1" stop-color="#6366F1"/>
        </linearGradient>
        <linearGradient id="paint1_linear" x1="6" y1="6" x2="18" y2="18" gradientUnits="userSpaceOnUse">
        <stop stop-color="#60A5FA"/>
        <stop offset="1" stop-color="#818CF8"/>
        </linearGradient>
    </defs>
    </svg>